<svg width="246" height="54" viewBox="0 0 246 54" fill="none" xmlns="http://www.w3.org/2000/svg">
<g filter="url(#filter0_d_1_3)">
<mask id="path-1-outside-1_1_3" maskUnits="userSpaceOnUse" x="4.82927" y="-0.731705" width="241" height="50" fill="black">
<rect fill="white" x="4.82927" y="-0.731705" width="241" height="50"/>
<path d="M18.0244 29.4146V30.5854H22.7073V29.4146H23.878V27.0732H29.7317V30.5854H28.561V32.9268H27.3902V34.0976H25.0488V35.2683H15.6829V34.0976H13.3415V32.9268H12.1707V30.5854H11V17.7073H12.1707V15.3659H13.3415V14.1951H15.6829V13.0244H25.0488V14.1951H27.3902V15.3659H28.561V17.7073H29.7317V21.2195H23.878V18.8781H22.7073V17.7073H18.0244V18.8781H16.8537V29.4146H18.0244ZM39.1181 25.9024V27.0732H37.9474V29.4146H39.1181V30.5854H43.8011V29.4146H44.9718V25.9024H39.1181ZM33.2645 32.9268V30.5854H32.0938V27.0732H33.2645V24.7317H34.4352V23.561H36.7767V22.3902H44.9718V18.8781H43.8011V17.7073H39.1181V18.8781H37.9474V20.0488H32.0938V17.7073H33.2645V15.3659H34.4352V14.1951H36.7767V13.0244H46.1425V14.1951H48.484V15.3659H49.6547V17.7073H50.8255V35.2683H44.9718V34.0976H43.8011V35.2683H35.6059V34.0976H34.4352V32.9268H33.2645ZM62.5545 29.4146V30.5854H66.0667V35.2683H60.213V34.0976H57.8716V32.9268H56.7008V30.5854H55.5301V18.8781H53.1886V14.1951H55.5301V11.8537H56.7008V10.6829H57.8716V9.5122H59.0423V8.34147H60.213V7.17074H61.3838V14.1951H66.0667V18.8781H61.3838V29.4146H62.5545ZM75.4463 27.0732V28.2439H80.1292V27.0732H81.2999V17.7073H75.4463V18.8781H74.2755V27.0732H75.4463ZM74.2755 35.2683V36.439H75.4463V37.6098H80.1292V36.439H81.2999V31.7561H80.1292V32.9268H73.1048V31.7561H70.7633V30.5854H69.5926V28.2439H68.4219V17.7073H69.5926V15.3659H70.7633V14.1951H73.1048V13.0244H87.1536V37.6098H85.9829V39.9512H84.8121V41.122H82.4707V42.2927H73.1048V41.122H70.7633V39.9512H69.5926V37.6098H68.4219V35.2683H74.2755ZM97.7119 6V10.6829H91.8582V6H97.7119ZM97.7119 14.1951V35.2683H91.8582V14.1951H97.7119ZM109.429 17.7073V18.8781H108.259V35.2683H102.405V13.0244H108.259V14.1951H109.429V13.0244H116.454V14.1951H117.625V15.3659H118.795V16.5366H117.625V17.7073H116.454V18.8781H115.283V20.0488H114.112V18.8781H112.942V17.7073H109.429ZM127.009 6V35.2683H121.155V6H127.009ZM145.762 37.6098V36.439H146.933V35.2683H148.104V34.0976H149.274V32.9268H148.104V31.7561H146.933V30.5854H145.762V29.4146H144.591V28.2439H143.421V13.0244H149.274V27.0732H150.445V28.2439H151.616V29.4146H153.957V28.2439H155.128V27.0732H156.299V13.0244H162.152V28.2439H160.982V29.4146H159.811V30.5854H158.64V31.7561H157.47V32.9268H156.299V34.0976H155.128V35.2683H153.957V36.439H152.787V37.6098H151.616V38.7805H150.445V39.9512H149.274V41.122H148.104V42.2927H144.591V37.6098H145.762ZM171.541 28.2439V29.4146H172.712V30.5854H177.395V29.4146H178.566V27.0732H177.395V25.9024H170.37V24.7317H168.029V23.561H166.858V21.2195H165.688V17.7073H166.858V15.3659H168.029V14.1951H170.37V13.0244H179.736V14.1951H182.078V15.3659H183.248V18.8781H177.395V17.7073H172.712V18.8781H171.541V20.0488H172.712V21.2195H179.736V22.3902H182.078V23.561H183.248V25.9024H184.419V30.5854H183.248V32.9268H182.078V34.0976H179.736V35.2683H170.37V34.0976H168.029V32.9268H166.858V30.5854H165.688V28.2439H171.541ZM194.976 27.0732V28.2439H196.147V29.4146H197.318V28.2439H198.489V27.0732H199.659V13.0244H205.513V27.0732H206.684V28.2439H207.854V29.4146H209.025V28.2439H210.196V27.0732H211.367V13.0244H217.22V28.2439H216.05V29.4146H214.879V30.5854H213.708V31.7561H212.537V32.9268H211.367V34.0976H210.196V35.2683H206.684V34.0976H205.513V32.9268H204.342V31.7561H203.171V30.5854H202.001V31.7561H200.83V32.9268H199.659V34.0976H198.489V35.2683H194.976V34.0976H193.806V32.9268H192.635V31.7561H191.464V30.5854H190.293V29.4146H189.123V28.2439H187.952V13.0244H193.806V27.0732H194.976ZM226.572 28.2439V29.4146H227.743V30.5854H232.426V29.4146H233.597V27.0732H232.426V25.9024H225.402V24.7317H223.06V23.561H221.889V21.2195H220.719V17.7073H221.889V15.3659H223.06V14.1951H225.402V13.0244H234.768V14.1951H237.109V15.3659H238.28V18.8781H232.426V17.7073H227.743V18.8781H226.572V20.0488H227.743V21.2195H234.768V22.3902H237.109V23.561H238.28V25.9024H239.45V30.5854H238.28V32.9268H237.109V34.0976H234.768V35.2683H225.402V34.0976H223.06V32.9268H221.889V30.5854H220.719V28.2439H226.572Z"/>
</mask>
<path d="M18.0244 29.4146V30.5854H22.7073V29.4146H23.878V27.0732H29.7317V30.5854H28.561V32.9268H27.3902V34.0976H25.0488V35.2683H15.6829V34.0976H13.3415V32.9268H12.1707V30.5854H11V17.7073H12.1707V15.3659H13.3415V14.1951H15.6829V13.0244H25.0488V14.1951H27.3902V15.3659H28.561V17.7073H29.7317V21.2195H23.878V18.8781H22.7073V17.7073H18.0244V18.8781H16.8537V29.4146H18.0244ZM39.1181 25.9024V27.0732H37.9474V29.4146H39.1181V30.5854H43.8011V29.4146H44.9718V25.9024H39.1181ZM33.2645 32.9268V30.5854H32.0938V27.0732H33.2645V24.7317H34.4352V23.561H36.7767V22.3902H44.9718V18.8781H43.8011V17.7073H39.1181V18.8781H37.9474V20.0488H32.0938V17.7073H33.2645V15.3659H34.4352V14.1951H36.7767V13.0244H46.1425V14.1951H48.484V15.3659H49.6547V17.7073H50.8255V35.2683H44.9718V34.0976H43.8011V35.2683H35.6059V34.0976H34.4352V32.9268H33.2645ZM62.5545 29.4146V30.5854H66.0667V35.2683H60.213V34.0976H57.8716V32.9268H56.7008V30.5854H55.5301V18.8781H53.1886V14.1951H55.5301V11.8537H56.7008V10.6829H57.8716V9.5122H59.0423V8.34147H60.213V7.17074H61.3838V14.1951H66.0667V18.8781H61.3838V29.4146H62.5545ZM75.4463 27.0732V28.2439H80.1292V27.0732H81.2999V17.7073H75.4463V18.8781H74.2755V27.0732H75.4463ZM74.2755 35.2683V36.439H75.4463V37.6098H80.1292V36.439H81.2999V31.7561H80.1292V32.9268H73.1048V31.7561H70.7633V30.5854H69.5926V28.2439H68.4219V17.7073H69.5926V15.3659H70.7633V14.1951H73.1048V13.0244H87.1536V37.6098H85.9829V39.9512H84.8121V41.122H82.4707V42.2927H73.1048V41.122H70.7633V39.9512H69.5926V37.6098H68.4219V35.2683H74.2755ZM97.7119 6V10.6829H91.8582V6H97.7119ZM97.7119 14.1951V35.2683H91.8582V14.1951H97.7119ZM109.429 17.7073V18.8781H108.259V35.2683H102.405V13.0244H108.259V14.1951H109.429V13.0244H116.454V14.1951H117.625V15.3659H118.795V16.5366H117.625V17.7073H116.454V18.8781H115.283V20.0488H114.112V18.8781H112.942V17.7073H109.429ZM127.009 6V35.2683H121.155V6H127.009ZM145.762 37.6098V36.439H146.933V35.2683H148.104V34.0976H149.274V32.9268H148.104V31.7561H146.933V30.5854H145.762V29.4146H144.591V28.2439H143.421V13.0244H149.274V27.0732H150.445V28.2439H151.616V29.4146H153.957V28.2439H155.128V27.0732H156.299V13.0244H162.152V28.2439H160.982V29.4146H159.811V30.5854H158.64V31.7561H157.47V32.9268H156.299V34.0976H155.128V35.2683H153.957V36.439H152.787V37.6098H151.616V38.7805H150.445V39.9512H149.274V41.122H148.104V42.2927H144.591V37.6098H145.762ZM171.541 28.2439V29.4146H172.712V30.5854H177.395V29.4146H178.566V27.0732H177.395V25.9024H170.37V24.7317H168.029V23.561H166.858V21.2195H165.688V17.7073H166.858V15.3659H168.029V14.1951H170.37V13.0244H179.736V14.1951H182.078V15.3659H183.248V18.8781H177.395V17.7073H172.712V18.8781H171.541V20.0488H172.712V21.2195H179.736V22.3902H182.078V23.561H183.248V25.9024H184.419V30.5854H183.248V32.9268H182.078V34.0976H179.736V35.2683H170.37V34.0976H168.029V32.9268H166.858V30.5854H165.688V28.2439H171.541ZM194.976 27.0732V28.2439H196.147V29.4146H197.318V28.2439H198.489V27.0732H199.659V13.0244H205.513V27.0732H206.684V28.2439H207.854V29.4146H209.025V28.2439H210.196V27.0732H211.367V13.0244H217.22V28.2439H216.05V29.4146H214.879V30.5854H213.708V31.7561H212.537V32.9268H211.367V34.0976H210.196V35.2683H206.684V34.0976H205.513V32.9268H204.342V31.7561H203.171V30.5854H202.001V31.7561H200.83V32.9268H199.659V34.0976H198.489V35.2683H194.976V34.0976H193.806V32.9268H192.635V31.7561H191.464V30.5854H190.293V29.4146H189.123V28.2439H187.952V13.0244H193.806V27.0732H194.976ZM226.572 28.2439V29.4146H227.743V30.5854H232.426V29.4146H233.597V27.0732H232.426V25.9024H225.402V24.7317H223.06V23.561H221.889V21.2195H220.719V17.7073H221.889V15.3659H223.06V14.1951H225.402V13.0244H234.768V14.1951H237.109V15.3659H238.28V18.8781H232.426V17.7073H227.743V18.8781H226.572V20.0488H227.743V21.2195H234.768V22.3902H237.109V23.561H238.28V25.9024H239.45V30.5854H238.28V32.9268H237.109V34.0976H234.768V35.2683H225.402V34.0976H223.06V32.9268H221.889V30.5854H220.719V28.2439H226.572Z" fill="#FF68B4"/>
<path d="M18.0244 29.4146H24.0244V23.4146H18.0244V29.4146ZM18.0244 30.5854H12.0244V36.5854H18.0244V30.5854ZM22.7073 30.5854V36.5854H28.7073V30.5854H22.7073ZM22.7073 29.4146V23.4146H16.7073V29.4146H22.7073ZM23.878 29.4146V35.4146H29.878V29.4146H23.878ZM23.878 27.0732V21.0732H17.878V27.0732H23.878ZM29.7317 27.0732H35.7317V21.0732H29.7317V27.0732ZM29.7317 30.5854V36.5854H35.7317V30.5854H29.7317ZM28.561 30.5854V24.5854H22.561V30.5854H28.561ZM28.561 32.9268V38.9268H34.561V32.9268H28.561ZM27.3902 32.9268V26.9268H21.3902V32.9268H27.3902ZM27.3902 34.0976V40.0976H33.3902V34.0976H27.3902ZM25.0488 34.0976V28.0976H19.0488V34.0976H25.0488ZM25.0488 35.2683V41.2683H31.0488V35.2683H25.0488ZM15.6829 35.2683H9.68293V41.2683H15.6829V35.2683ZM15.6829 34.0976H21.6829V28.0976H15.6829V34.0976ZM13.3415 34.0976H7.34146V40.0976H13.3415V34.0976ZM13.3415 32.9268H19.3415V26.9268H13.3415V32.9268ZM12.1707 32.9268H6.17073V38.9268H12.1707V32.9268ZM12.1707 30.5854H18.1707V24.5854H12.1707V30.5854ZM11 30.5854H5V36.5854H11V30.5854ZM11 17.7073V11.7073H5V17.7073H11ZM12.1707 17.7073V23.7073H18.1707V17.7073H12.1707ZM12.1707 15.3659V9.36586H6.17073V15.3659H12.1707ZM13.3415 15.3659V21.3659H19.3415V15.3659H13.3415ZM13.3415 14.1951V8.19513H7.34146V14.1951H13.3415ZM15.6829 14.1951V20.1951H21.6829V14.1951H15.6829ZM15.6829 13.0244V7.02439H9.68293V13.0244H15.6829ZM25.0488 13.0244H31.0488V7.02439H25.0488V13.0244ZM25.0488 14.1951H19.0488V20.1951H25.0488V14.1951ZM27.3902 14.1951H33.3902V8.19513H27.3902V14.1951ZM27.3902 15.3659H21.3902V21.3659H27.3902V15.3659ZM28.561 15.3659H34.561V9.36586H28.561V15.3659ZM28.561 17.7073H22.561V23.7073H28.561V17.7073ZM29.7317 17.7073H35.7317V11.7073H29.7317V17.7073ZM29.7317 21.2195V27.2195H35.7317V21.2195H29.7317ZM23.878 21.2195H17.878V27.2195H23.878V21.2195ZM23.878 18.8781H29.878V12.8781H23.878V18.8781ZM22.7073 18.8781H16.7073V24.8781H22.7073V18.8781ZM22.7073 17.7073H28.7073V11.7073H22.7073V17.7073ZM18.0244 17.7073V11.7073H12.0244V17.7073H18.0244ZM18.0244 18.8781V24.8781H24.0244V18.8781H18.0244ZM16.8537 18.8781V12.8781H10.8537V18.8781H16.8537ZM16.8537 29.4146H10.8537V35.4146H16.8537V29.4146ZM18.0244 29.4146H12.0244V30.5854H18.0244H24.0244V29.4146H18.0244ZM18.0244 30.5854V36.5854H22.7073V30.5854V24.5854H18.0244V30.5854ZM22.7073 30.5854H28.7073V29.4146H22.7073H16.7073V30.5854H22.7073ZM22.7073 29.4146V35.4146H23.878V29.4146V23.4146H22.7073V29.4146ZM23.878 29.4146H29.878V27.0732H23.878H17.878V29.4146H23.878ZM23.878 27.0732V33.0732H29.7317V27.0732V21.0732H23.878V27.0732ZM29.7317 27.0732H23.7317V30.5854H29.7317H35.7317V27.0732H29.7317ZM29.7317 30.5854V24.5854H28.561V30.5854V36.5854H29.7317V30.5854ZM28.561 30.5854H22.561V32.9268H28.561H34.561V30.5854H28.561ZM28.561 32.9268V26.9268H27.3902V32.9268V38.9268H28.561V32.9268ZM27.3902 32.9268H21.3902V34.0976H27.3902H33.3902V32.9268H27.3902ZM27.3902 34.0976V28.0976H25.0488V34.0976V40.0976H27.3902V34.0976ZM25.0488 34.0976H19.0488V35.2683H25.0488H31.0488V34.0976H25.0488ZM25.0488 35.2683V29.2683H15.6829V35.2683V41.2683H25.0488V35.2683ZM15.6829 35.2683H21.6829V34.0976H15.6829H9.68293V35.2683H15.6829ZM15.6829 34.0976V28.0976H13.3415V34.0976V40.0976H15.6829V34.0976ZM13.3415 34.0976H19.3415V32.9268H13.3415H7.34146V34.0976H13.3415ZM13.3415 32.9268V26.9268H12.1707V32.9268V38.9268H13.3415V32.9268ZM12.1707 32.9268H18.1707V30.5854H12.1707H6.17073V32.9268H12.1707ZM12.1707 30.5854V24.5854H11V30.5854V36.5854H12.1707V30.5854ZM11 30.5854H17V17.7073H11H5V30.5854H11ZM11 17.7073V23.7073H12.1707V17.7073V11.7073H11V17.7073ZM12.1707 17.7073H18.1707V15.3659H12.1707H6.17073V17.7073H12.1707ZM12.1707 15.3659V21.3659H13.3415V15.3659V9.36586H12.1707V15.3659ZM13.3415 15.3659H19.3415V14.1951H13.3415H7.34146V15.3659H13.3415ZM13.3415 14.1951V20.1951H15.6829V14.1951V8.19513H13.3415V14.1951ZM15.6829 14.1951H21.6829V13.0244H15.6829H9.68293V14.1951H15.6829ZM15.6829 13.0244V19.0244H25.0488V13.0244V7.02439H15.6829V13.0244ZM25.0488 13.0244H19.0488V14.1951H25.0488H31.0488V13.0244H25.0488ZM25.0488 14.1951V20.1951H27.3902V14.1951V8.19513H25.0488V14.1951ZM27.3902 14.1951H21.3902V15.3659H27.3902H33.3902V14.1951H27.3902ZM27.3902 15.3659V21.3659H28.561V15.3659V9.36586H27.3902V15.3659ZM28.561 15.3659H22.561V17.7073H28.561H34.561V15.3659H28.561ZM28.561 17.7073V23.7073H29.7317V17.7073V11.7073H28.561V17.7073ZM29.7317 17.7073H23.7317V21.2195H29.7317H35.7317V17.7073H29.7317ZM29.7317 21.2195V15.2195H23.878V21.2195V27.2195H29.7317V21.2195ZM23.878 21.2195H29.878V18.8781H23.878H17.878V21.2195H23.878ZM23.878 18.8781V12.8781H22.7073V18.8781V24.8781H23.878V18.8781ZM22.7073 18.8781H28.7073V17.7073H22.7073H16.7073V18.8781H22.7073ZM22.7073 17.7073V11.7073H18.0244V17.7073V23.7073H22.7073V17.7073ZM18.0244 17.7073H12.0244V18.8781H18.0244H24.0244V17.7073H18.0244ZM18.0244 18.8781V12.8781H16.8537V18.8781V24.8781H18.0244V18.8781ZM16.8537 18.8781H10.8537V29.4146H16.8537H22.8537V18.8781H16.8537ZM16.8537 29.4146V35.4146H18.0244V29.4146V23.4146H16.8537V29.4146ZM39.1181 25.9024V19.9024H33.1181V25.9024H39.1181ZM39.1181 27.0732V33.0732H45.1181V27.0732H39.1181ZM37.9474 27.0732V21.0732H31.9474V27.0732H37.9474ZM37.9474 29.4146H31.9474V35.4146H37.9474V29.4146ZM39.1181 29.4146H45.1181V23.4146H39.1181V29.4146ZM39.1181 30.5854H33.1181V36.5854H39.1181V30.5854ZM43.8011 30.5854V36.5854H49.8011V30.5854H43.8011ZM43.8011 29.4146V23.4146H37.8011V29.4146H43.8011ZM44.9718 29.4146V35.4146H50.9718V29.4146H44.9718ZM44.9718 25.9024H50.9718V19.9024H44.9718V25.9024ZM33.2645 32.9268H27.2645V38.9268H33.2645V32.9268ZM33.2645 30.5854H39.2645V24.5854H33.2645V30.5854ZM32.0938 30.5854H26.0938V36.5854H32.0938V30.5854ZM32.0938 27.0732V21.0732H26.0938V27.0732H32.0938ZM33.2645 27.0732V33.0732H39.2645V27.0732H33.2645ZM33.2645 24.7317V18.7317H27.2645V24.7317H33.2645ZM34.4352 24.7317V30.7317H40.4352V24.7317H34.4352ZM34.4352 23.561V17.561H28.4352V23.561H34.4352ZM36.7767 23.561V29.561H42.7767V23.561H36.7767ZM36.7767 22.3902V16.3902H30.7767V22.3902H36.7767ZM44.9718 22.3902V28.3902H50.9718V22.3902H44.9718ZM44.9718 18.8781H50.9718V12.8781H44.9718V18.8781ZM43.8011 18.8781H37.8011V24.8781H43.8011V18.8781ZM43.8011 17.7073H49.8011V11.7073H43.8011V17.7073ZM39.1181 17.7073V11.7073H33.1181V17.7073H39.1181ZM39.1181 18.8781V24.8781H45.1181V18.8781H39.1181ZM37.9474 18.8781V12.8781H31.9474V18.8781H37.9474ZM37.9474 20.0488V26.0488H43.9474V20.0488H37.9474ZM32.0938 20.0488H26.0938V26.0488H32.0938V20.0488ZM32.0938 17.7073V11.7073H26.0938V17.7073H32.0938ZM33.2645 17.7073V23.7073H39.2645V17.7073H33.2645ZM33.2645 15.3659V9.36586H27.2645V15.3659H33.2645ZM34.4352 15.3659V21.3659H40.4352V15.3659H34.4352ZM34.4352 14.1951V8.19513H28.4352V14.1951H34.4352ZM36.7767 14.1951V20.1951H42.7767V14.1951H36.7767ZM36.7767 13.0244V7.02439H30.7767V13.0244H36.7767ZM46.1425 13.0244H52.1425V7.02439H46.1425V13.0244ZM46.1425 14.1951H40.1425V20.1951H46.1425V14.1951ZM48.484 14.1951H54.484V8.19513H48.484V14.1951ZM48.484 15.3659H42.484V21.3659H48.484V15.3659ZM49.6547 15.3659H55.6547V9.36586H49.6547V15.3659ZM49.6547 17.7073H43.6547V23.7073H49.6547V17.7073ZM50.8255 17.7073H56.8255V11.7073H50.8255V17.7073ZM50.8255 35.2683V41.2683H56.8255V35.2683H50.8255ZM44.9718 35.2683H38.9718V41.2683H44.9718V35.2683ZM44.9718 34.0976H50.9718V28.0976H44.9718V34.0976ZM43.8011 34.0976V28.0976H37.8011V34.0976H43.8011ZM43.8011 35.2683V41.2683H49.8011V35.2683H43.8011ZM35.6059 35.2683H29.6059V41.2683H35.6059V35.2683ZM35.6059 34.0976H41.6059V28.0976H35.6059V34.0976ZM34.4352 34.0976H28.4352V40.0976H34.4352V34.0976ZM34.4352 32.9268H40.4352V26.9268H34.4352V32.9268ZM39.1181 25.9024H33.1181V27.0732H39.1181H45.1181V25.9024H39.1181ZM39.1181 27.0732V21.0732H37.9474V27.0732V33.0732H39.1181V27.0732ZM37.9474 27.0732H31.9474V29.4146H37.9474H43.9474V27.0732H37.9474ZM37.9474 29.4146V35.4146H39.1181V29.4146V23.4146H37.9474V29.4146ZM39.1181 29.4146H33.1181V30.5854H39.1181H45.1181V29.4146H39.1181ZM39.1181 30.5854V36.5854H43.8011V30.5854V24.5854H39.1181V30.5854ZM43.8011 30.5854H49.8011V29.4146H43.8011H37.8011V30.5854H43.8011ZM43.8011 29.4146V35.4146H44.9718V29.4146V23.4146H43.8011V29.4146ZM44.9718 29.4146H50.9718V25.9024H44.9718H38.9718V29.4146H44.9718ZM44.9718 25.9024V19.9024H39.1181V25.9024V31.9024H44.9718V25.9024ZM33.2645 32.9268H39.2645V30.5854H33.2645H27.2645V32.9268H33.2645ZM33.2645 30.5854V24.5854H32.0938V30.5854V36.5854H33.2645V30.5854ZM32.0938 30.5854H38.0938V27.0732H32.0938H26.0938V30.5854H32.0938ZM32.0938 27.0732V33.0732H33.2645V27.0732V21.0732H32.0938V27.0732ZM33.2645 27.0732H39.2645V24.7317H33.2645H27.2645V27.0732H33.2645ZM33.2645 24.7317V30.7317H34.4352V24.7317V18.7317H33.2645V24.7317ZM34.4352 24.7317H40.4352V23.561H34.4352H28.4352V24.7317H34.4352ZM34.4352 23.561V29.561H36.7767V23.561V17.561H34.4352V23.561ZM36.7767 23.561H42.7767V22.3902H36.7767H30.7767V23.561H36.7767ZM36.7767 22.3902V28.3902H44.9718V22.3902V16.3902H36.7767V22.3902ZM44.9718 22.3902H50.9718V18.8781H44.9718H38.9718V22.3902H44.9718ZM44.9718 18.8781V12.8781H43.8011V18.8781V24.8781H44.9718V18.8781ZM43.8011 18.8781H49.8011V17.7073H43.8011H37.8011V18.8781H43.8011ZM43.8011 17.7073V11.7073H39.1181V17.7073V23.7073H43.8011V17.7073ZM39.1181 17.7073H33.1181V18.8781H39.1181H45.1181V17.7073H39.1181ZM39.1181 18.8781V12.8781H37.9474V18.8781V24.8781H39.1181V18.8781ZM37.9474 18.8781H31.9474V20.0488H37.9474H43.9474V18.8781H37.9474ZM37.9474 20.0488V14.0488H32.0938V20.0488V26.0488H37.9474V20.0488ZM32.0938 20.0488H38.0938V17.7073H32.0938H26.0938V20.0488H32.0938ZM32.0938 17.7073V23.7073H33.2645V17.7073V11.7073H32.0938V17.7073ZM33.2645 17.7073H39.2645V15.3659H33.2645H27.2645V17.7073H33.2645ZM33.2645 15.3659V21.3659H34.4352V15.3659V9.36586H33.2645V15.3659ZM34.4352 15.3659H40.4352V14.1951H34.4352H28.4352V15.3659H34.4352ZM34.4352 14.1951V20.1951H36.7767V14.1951V8.19513H34.4352V14.1951ZM36.7767 14.1951H42.7767V13.0244H36.7767H30.7767V14.1951H36.7767ZM36.7767 13.0244V19.0244H46.1425V13.0244V7.02439H36.7767V13.0244ZM46.1425 13.0244H40.1425V14.1951H46.1425H52.1425V13.0244H46.1425ZM46.1425 14.1951V20.1951H48.484V14.1951V8.19513H46.1425V14.1951ZM48.484 14.1951H42.484V15.3659H48.484H54.484V14.1951H48.484ZM48.484 15.3659V21.3659H49.6547V15.3659V9.36586H48.484V15.3659ZM49.6547 15.3659H43.6547V17.7073H49.6547H55.6547V15.3659H49.6547ZM49.6547 17.7073V23.7073H50.8255V17.7073V11.7073H49.6547V17.7073ZM50.8255 17.7073H44.8255V35.2683H50.8255H56.8255V17.7073H50.8255ZM50.8255 35.2683V29.2683H44.9718V35.2683V41.2683H50.8255V35.2683ZM44.9718 35.2683H50.9718V34.0976H44.9718H38.9718V35.2683H44.9718ZM44.9718 34.0976V28.0976H43.8011V34.0976V40.0976H44.9718V34.0976ZM43.8011 34.0976H37.8011V35.2683H43.8011H49.8011V34.0976H43.8011ZM43.8011 35.2683V29.2683H35.6059V35.2683V41.2683H43.8011V35.2683ZM35.6059 35.2683H41.6059V34.0976H35.6059H29.6059V35.2683H35.6059ZM35.6059 34.0976V28.0976H34.4352V34.0976V40.0976H35.6059V34.0976ZM34.4352 34.0976H40.4352V32.9268H34.4352H28.4352V34.0976H34.4352ZM34.4352 32.9268V26.9268H33.2645V32.9268V38.9268H34.4352V32.9268ZM62.5545 29.4146H68.5545V23.4146H62.5545V29.4146ZM62.5545 30.5854H56.5545V36.5854H62.5545V30.5854ZM66.0667 30.5854H72.0667V24.5854H66.0667V30.5854ZM66.0667 35.2683V41.2683H72.0667V35.2683H66.0667ZM60.213 35.2683H54.213V41.2683H60.213V35.2683ZM60.213 34.0976H66.213V28.0976H60.213V34.0976ZM57.8716 34.0976H51.8716V40.0976H57.8716V34.0976ZM57.8716 32.9268H63.8716V26.9268H57.8716V32.9268ZM56.7008 32.9268H50.7008V38.9268H56.7008V32.9268ZM56.7008 30.5854H62.7008V24.5854H56.7008V30.5854ZM55.5301 30.5854H49.5301V36.5854H55.5301V30.5854ZM55.5301 18.8781H61.5301V12.8781H55.5301V18.8781ZM53.1886 18.8781H47.1886V24.8781H53.1886V18.8781ZM53.1886 14.1951V8.19513H47.1886V14.1951H53.1886ZM55.5301 14.1951V20.1951H61.5301V14.1951H55.5301ZM55.5301 11.8537V5.85366H49.5301V11.8537H55.5301ZM56.7008 11.8537V17.8537H62.7008V11.8537H56.7008ZM56.7008 10.6829V4.68293H50.7008V10.6829H56.7008ZM57.8716 10.6829V16.6829H63.8716V10.6829H57.8716ZM57.8716 9.5122V3.5122H51.8716V9.5122H57.8716ZM59.0423 9.5122V15.5122H65.0423V9.5122H59.0423ZM59.0423 8.34146V2.34146H53.0423V8.34146H59.0423ZM60.213 8.34146V14.3415H66.213V8.34146H60.213ZM60.213 7.17073V1.17073H54.213V7.17073H60.213ZM61.3838 7.17073H67.3838V1.17073H61.3838V7.17073ZM61.3838 14.1951H55.3838V20.1951H61.3838V14.1951ZM66.0667 14.1951H72.0667V8.19513H66.0667V14.1951ZM66.0667 18.8781V24.8781H72.0667V18.8781H66.0667ZM61.3838 18.8781V12.8781H55.3838V18.8781H61.3838ZM61.3838 29.4146H55.3838V35.4146H61.3838V29.4146ZM62.5545 29.4146H56.5545V30.5854H62.5545H68.5545V29.4146H62.5545ZM62.5545 30.5854V36.5854H66.0667V30.5854V24.5854H62.5545V30.5854ZM66.0667 30.5854H60.0667V35.2683H66.0667H72.0667V30.5854H66.0667ZM66.0667 35.2683V29.2683H60.213V35.2683V41.2683H66.0667V35.2683ZM60.213 35.2683H66.213V34.0976H60.213H54.213V35.2683H60.213ZM60.213 34.0976V28.0976H57.8716V34.0976V40.0976H60.213V34.0976ZM57.8716 34.0976H63.8716V32.9268H57.8716H51.8716V34.0976H57.8716ZM57.8716 32.9268V26.9268H56.7008V32.9268V38.9268H57.8716V32.9268ZM56.7008 32.9268H62.7008V30.5854H56.7008H50.7008V32.9268H56.7008ZM56.7008 30.5854V24.5854H55.5301V30.5854V36.5854H56.7008V30.5854ZM55.5301 30.5854H61.5301V18.8781H55.5301H49.5301V30.5854H55.5301ZM55.5301 18.8781V12.8781H53.1886V18.8781V24.8781H55.5301V18.8781ZM53.1886 18.8781H59.1886V14.1951H53.1886H47.1886V18.8781H53.1886ZM53.1886 14.1951V20.1951H55.5301V14.1951V8.19513H53.1886V14.1951ZM55.5301 14.1951H61.5301V11.8537H55.5301H49.5301V14.1951H55.5301ZM55.5301 11.8537V17.8537H56.7008V11.8537V5.85366H55.5301V11.8537ZM56.7008 11.8537H62.7008V10.6829H56.7008H50.7008V11.8537H56.7008ZM56.7008 10.6829V16.6829H57.8716V10.6829V4.68293H56.7008V10.6829ZM57.8716 10.6829H63.8716V9.5122H57.8716H51.8716V10.6829H57.8716ZM57.8716 9.5122V15.5122H59.0423V9.5122V3.5122H57.8716V9.5122ZM59.0423 9.5122H65.0423V8.34146H59.0423H53.0423V9.5122H59.0423ZM59.0423 8.34146V14.3415H60.213V8.34146V2.34146H59.0423V8.34146ZM60.213 8.34146H66.213V7.17073H60.213H54.213V8.34146H60.213ZM60.213 7.17073V13.1707H61.3838V7.17073V1.17073H60.213V7.17073ZM61.3838 7.17073H55.3838V14.1951H61.3838H67.3838V7.17073H61.3838ZM61.3838 14.1951V20.1951H66.0667V14.1951V8.19513H61.3838V14.1951ZM66.0667 14.1951H60.0667V18.8781H66.0667H72.0667V14.1951H66.0667ZM66.0667 18.8781V12.8781H61.3838V18.8781V24.8781H66.0667V18.8781ZM61.3838 18.8781H55.3838V29.4146H61.3838H67.3838V18.8781H61.3838ZM61.3838 29.4146V35.4146H62.5545V29.4146V23.4146H61.3838V29.4146ZM75.4463 27.0732H81.4463V21.0732H75.4463V27.0732ZM75.4463 28.2439H69.4463V34.2439H75.4463V28.2439ZM80.1292 28.2439V34.2439H86.1292V28.2439H80.1292ZM80.1292 27.0732V21.0732H74.1292V27.0732H80.1292ZM81.2999 27.0732V33.0732H87.2999V27.0732H81.2999ZM81.2999 17.7073H87.2999V11.7073H81.2999V17.7073ZM75.4463 17.7073V11.7073H69.4463V17.7073H75.4463ZM75.4463 18.8781V24.8781H81.4463V18.8781H75.4463ZM74.2755 18.8781V12.8781H68.2755V18.8781H74.2755ZM74.2755 27.0732H68.2755V33.0732H74.2755V27.0732ZM74.2755 35.2683H80.2755V29.2683H74.2755V35.2683ZM74.2755 36.439H68.2755V42.439H74.2755V36.439ZM75.4463 36.439H81.4463V30.439H75.4463V36.439ZM75.4463 37.6098H69.4463V43.6098H75.4463V37.6098ZM80.1292 37.6098V43.6098H86.1292V37.6098H80.1292ZM80.1292 36.439V30.439H74.1292V36.439H80.1292ZM81.2999 36.439V42.439H87.2999V36.439H81.2999ZM81.2999 31.7561H87.2999V25.7561H81.2999V31.7561ZM80.1292 31.7561V25.7561H74.1292V31.7561H80.1292ZM80.1292 32.9268V38.9268H86.1292V32.9268H80.1292ZM73.1048 32.9268H67.1048V38.9268H73.1048V32.9268ZM73.1048 31.7561H79.1048V25.7561H73.1048V31.7561ZM70.7633 31.7561H64.7633V37.7561H70.7633V31.7561ZM70.7633 30.5854H76.7633V24.5854H70.7633V30.5854ZM69.5926 30.5854H63.5926V36.5854H69.5926V30.5854ZM69.5926 28.2439H75.5926V22.2439H69.5926V28.2439ZM68.4219 28.2439H62.4219V34.2439H68.4219V28.2439ZM68.4219 17.7073V11.7073H62.4219V17.7073H68.4219ZM69.5926 17.7073V23.7073H75.5926V17.7073H69.5926ZM69.5926 15.3659V9.36586H63.5926V15.3659H69.5926ZM70.7633 15.3659V21.3659H76.7633V15.3659H70.7633ZM70.7633 14.1951V8.19513H64.7633V14.1951H70.7633ZM73.1048 14.1951V20.1951H79.1048V14.1951H73.1048ZM73.1048 13.0244V7.02439H67.1048V13.0244H73.1048ZM87.1536 13.0244H93.1536V7.02439H87.1536V13.0244ZM87.1536 37.6098V43.6098H93.1536V37.6098H87.1536ZM85.9828 37.6098V31.6098H79.9828V37.6098H85.9828ZM85.9828 39.9512V45.9512H91.9828V39.9512H85.9828ZM84.8121 39.9512V33.9512H78.8121V39.9512H84.8121ZM84.8121 41.122V47.122H90.8121V41.122H84.8121ZM82.4707 41.122V35.122H76.4707V41.122H82.4707ZM82.4707 42.2927V48.2927H88.4707V42.2927H82.4707ZM73.1048 42.2927H67.1048V48.2927H73.1048V42.2927ZM73.1048 41.122H79.1048V35.122H73.1048V41.122ZM70.7633 41.122H64.7633V47.122H70.7633V41.122ZM70.7633 39.9512H76.7633V33.9512H70.7633V39.9512ZM69.5926 39.9512H63.5926V45.9512H69.5926V39.9512ZM69.5926 37.6098H75.5926V31.6098H69.5926V37.6098ZM68.4219 37.6098H62.4219V43.6098H68.4219V37.6098ZM68.4219 35.2683V29.2683H62.4219V35.2683H68.4219ZM75.4463 27.0732H69.4463V28.2439H75.4463H81.4463V27.0732H75.4463ZM75.4463 28.2439V34.2439H80.1292V28.2439V22.2439H75.4463V28.2439ZM80.1292 28.2439H86.1292V27.0732H80.1292H74.1292V28.2439H80.1292ZM80.1292 27.0732V33.0732H81.2999V27.0732V21.0732H80.1292V27.0732ZM81.2999 27.0732H87.2999V17.7073H81.2999H75.2999V27.0732H81.2999ZM81.2999 17.7073V11.7073H75.4463V17.7073V23.7073H81.2999V17.7073ZM75.4463 17.7073H69.4463V18.8781H75.4463H81.4463V17.7073H75.4463ZM75.4463 18.8781V12.8781H74.2755V18.8781V24.8781H75.4463V18.8781ZM74.2755 18.8781H68.2755V27.0732H74.2755H80.2755V18.8781H74.2755ZM74.2755 27.0732V33.0732H75.4463V27.0732V21.0732H74.2755V27.0732ZM74.2755 35.2683H68.2755V36.439H74.2755H80.2755V35.2683H74.2755ZM74.2755 36.439V42.439H75.4463V36.439V30.439H74.2755V36.439ZM75.4463 36.439H69.4463V37.6098H75.4463H81.4463V36.439H75.4463ZM75.4463 37.6098V43.6098H80.1292V37.6098V31.6098H75.4463V37.6098ZM80.1292 37.6098H86.1292V36.439H80.1292H74.1292V37.6098H80.1292ZM80.1292 36.439V42.439H81.2999V36.439V30.439H80.1292V36.439ZM81.2999 36.439H87.2999V31.7561H81.2999H75.2999V36.439H81.2999ZM81.2999 31.7561V25.7561H80.1292V31.7561V37.7561H81.2999V31.7561ZM80.1292 31.7561H74.1292V32.9268H80.1292H86.1292V31.7561H80.1292ZM80.1292 32.9268V26.9268H73.1048V32.9268V38.9268H80.1292V32.9268ZM73.1048 32.9268H79.1048V31.7561H73.1048H67.1048V32.9268H73.1048ZM73.1048 31.7561V25.7561H70.7633V31.7561V37.7561H73.1048V31.7561ZM70.7633 31.7561H76.7633V30.5854H70.7633H64.7633V31.7561H70.7633ZM70.7633 30.5854V24.5854H69.5926V30.5854V36.5854H70.7633V30.5854ZM69.5926 30.5854H75.5926V28.2439H69.5926H63.5926V30.5854H69.5926ZM69.5926 28.2439V22.2439H68.4219V28.2439V34.2439H69.5926V28.2439ZM68.4219 28.2439H74.4219V17.7073H68.4219H62.4219V28.2439H68.4219ZM68.4219 17.7073V23.7073H69.5926V17.7073V11.7073H68.4219V17.7073ZM69.5926 17.7073H75.5926V15.3659H69.5926H63.5926V17.7073H69.5926ZM69.5926 15.3659V21.3659H70.7633V15.3659V9.36586H69.5926V15.3659ZM70.7633 15.3659H76.7633V14.1951H70.7633H64.7633V15.3659H70.7633ZM70.7633 14.1951V20.1951H73.1048V14.1951V8.19513H70.7633V14.1951ZM73.1048 14.1951H79.1048V13.0244H73.1048H67.1048V14.1951H73.1048ZM73.1048 13.0244V19.0244H87.1536V13.0244V7.02439H73.1048V13.0244ZM87.1536 13.0244H81.1536V37.6098H87.1536H93.1536V13.0244H87.1536ZM87.1536 37.6098V31.6098H85.9828V37.6098V43.6098H87.1536V37.6098ZM85.9828 37.6098H79.9828V39.9512H85.9828H91.9828V37.6098H85.9828ZM85.9828 39.9512V33.9512H84.8121V39.9512V45.9512H85.9828V39.9512ZM84.8121 39.9512H78.8121V41.122H84.8121H90.8121V39.9512H84.8121ZM84.8121 41.122V35.122H82.4707V41.122V47.122H84.8121V41.122ZM82.4707 41.122H76.4707V42.2927H82.4707H88.4707V41.122H82.4707ZM82.4707 42.2927V36.2927H73.1048V42.2927V48.2927H82.4707V42.2927ZM73.1048 42.2927H79.1048V41.122H73.1048H67.1048V42.2927H73.1048ZM73.1048 41.122V35.122H70.7633V41.122V47.122H73.1048V41.122ZM70.7633 41.122H76.7633V39.9512H70.7633H64.7633V41.122H70.7633ZM70.7633 39.9512V33.9512H69.5926V39.9512V45.9512H70.7633V39.9512ZM69.5926 39.9512H75.5926V37.6098H69.5926H63.5926V39.9512H69.5926ZM69.5926 37.6098V31.6098H68.4219V37.6098V43.6098H69.5926V37.6098ZM68.4219 37.6098H74.4219V35.2683H68.4219H62.4219V37.6098H68.4219ZM68.4219 35.2683V41.2683H74.2755V35.2683V29.2683H68.4219V35.2683ZM97.7119 6H103.712V0H97.7119V6ZM97.7119 10.6829V16.6829H103.712V10.6829H97.7119ZM91.8582 10.6829H85.8582V16.6829H91.8582V10.6829ZM91.8582 6V0H85.8582V6H91.8582ZM97.7119 14.1951H103.712V8.19513H97.7119V14.1951ZM97.7119 35.2683V41.2683H103.712V35.2683H97.7119ZM91.8582 35.2683H85.8582V41.2683H91.8582V35.2683ZM91.8582 14.1951V8.19513H85.8582V14.1951H91.8582ZM97.7119 6H91.7119V10.6829H97.7119H103.712V6H97.7119ZM97.7119 10.6829V4.68293H91.8582V10.6829V16.6829H97.7119V10.6829ZM91.8582 10.6829H97.8582V6H91.8582H85.8582V10.6829H91.8582ZM91.8582 6V12H97.7119V6V0H91.8582V6ZM97.7119 14.1951H91.7119V35.2683H97.7119H103.712V14.1951H97.7119ZM97.7119 35.2683V29.2683H91.8582V35.2683V41.2683H97.7119V35.2683ZM91.8582 35.2683H97.8582V14.1951H91.8582H85.8582V35.2683H91.8582ZM91.8582 14.1951V20.1951H97.7119V14.1951V8.19513H91.8582V14.1951ZM109.429 17.7073V11.7073H103.429V17.7073H109.429ZM109.429 18.8781V24.8781H115.429V18.8781H109.429ZM108.259 18.8781V12.8781H102.259V18.8781H108.259ZM108.259 35.2683V41.2683H114.259V35.2683H108.259ZM102.405 35.2683H96.4051V41.2683H102.405V35.2683ZM102.405 13.0244V7.02439H96.4051V13.0244H102.405ZM108.259 13.0244H114.259V7.02439H108.259V13.0244ZM108.259 14.1951H102.259V20.1951H108.259V14.1951ZM109.429 14.1951V20.1951H115.429V14.1951H109.429ZM109.429 13.0244V7.02439H103.429V13.0244H109.429ZM116.454 13.0244H122.454V7.02439H116.454V13.0244ZM116.454 14.1951H110.454V20.1951H116.454V14.1951ZM117.625 14.1951H123.625V8.19513H117.625V14.1951ZM117.625 15.3659H111.625V21.3659H117.625V15.3659ZM118.795 15.3659H124.795V9.36586H118.795V15.3659ZM118.795 16.5366V22.5366H124.795V16.5366H118.795ZM117.625 16.5366V10.5366H111.625V16.5366H117.625ZM117.625 17.7073V23.7073H123.625V17.7073H117.625ZM116.454 17.7073V11.7073H110.454V17.7073H116.454ZM116.454 18.8781V24.8781H122.454V18.8781H116.454ZM115.283 18.8781V12.8781H109.283V18.8781H115.283ZM115.283 20.0488V26.0488H121.283V20.0488H115.283ZM114.112 20.0488H108.112V26.0488H114.112V20.0488ZM114.112 18.8781H120.112V12.8781H114.112V18.8781ZM112.942 18.8781H106.942V24.8781H112.942V18.8781ZM112.942 17.7073H118.942V11.7073H112.942V17.7073ZM109.429 17.7073H103.429V18.8781H109.429H115.429V17.7073H109.429ZM109.429 18.8781V12.8781H108.259V18.8781V24.8781H109.429V18.8781ZM108.259 18.8781H102.259V35.2683H108.259H114.259V18.8781H108.259ZM108.259 35.2683V29.2683H102.405V35.2683V41.2683H108.259V35.2683ZM102.405 35.2683H108.405V13.0244H102.405H96.4051V35.2683H102.405ZM102.405 13.0244V19.0244H108.259V13.0244V7.02439H102.405V13.0244ZM108.259 13.0244H102.259V14.1951H108.259H114.259V13.0244H108.259ZM108.259 14.1951V20.1951H109.429V14.1951V8.19513H108.259V14.1951ZM109.429 14.1951H115.429V13.0244H109.429H103.429V14.1951H109.429ZM109.429 13.0244V19.0244H116.454V13.0244V7.02439H109.429V13.0244ZM116.454 13.0244H110.454V14.1951H116.454H122.454V13.0244H116.454ZM116.454 14.1951V20.1951H117.625V14.1951V8.19513H116.454V14.1951ZM117.625 14.1951H111.625V15.3659H117.625H123.625V14.1951H117.625ZM117.625 15.3659V21.3659H118.795V15.3659V9.36586H117.625V15.3659ZM118.795 15.3659H112.795V16.5366H118.795H124.795V15.3659H118.795ZM118.795 16.5366V10.5366H117.625V16.5366V22.5366H118.795V16.5366ZM117.625 16.5366H111.625V17.7073H117.625H123.625V16.5366H117.625ZM117.625 17.7073V11.7073H116.454V17.7073V23.7073H117.625V17.7073ZM116.454 17.7073H110.454V18.8781H116.454H122.454V17.7073H116.454ZM116.454 18.8781V12.8781H115.283V18.8781V24.8781H116.454V18.8781ZM115.283 18.8781H109.283V20.0488H115.283H121.283V18.8781H115.283ZM115.283 20.0488V14.0488H114.112V20.0488V26.0488H115.283V20.0488ZM114.112 20.0488H120.112V18.8781H114.112H108.112V20.0488H114.112ZM114.112 18.8781V12.8781H112.942V18.8781V24.8781H114.112V18.8781ZM112.942 18.8781H118.942V17.7073H112.942H106.942V18.8781H112.942ZM112.942 17.7073V11.7073H109.429V17.7073V23.7073H112.942V17.7073ZM127.009 6H133.009V0H127.009V6ZM127.009 35.2683V41.2683H133.009V35.2683H127.009ZM121.155 35.2683H115.155V41.2683H121.155V35.2683ZM121.155 6V0H115.155V6H121.155ZM127.009 6H121.009V35.2683H127.009H133.009V6H127.009ZM127.009 35.2683V29.2683H121.155V35.2683V41.2683H127.009V35.2683ZM121.155 35.2683H127.155V6H121.155H115.155V35.2683H121.155ZM121.155 6V12H127.009V6V0H121.155V6ZM145.762 37.6098V43.6098H151.762V37.6098H145.762ZM145.762 36.439V30.439H139.762V36.439H145.762ZM146.933 36.439V42.439H152.933V36.439H146.933ZM146.933 35.2683V29.2683H140.933V35.2683H146.933ZM148.104 35.2683V41.2683H154.104V35.2683H148.104ZM148.104 34.0976V28.0976H142.104V34.0976H148.104ZM149.274 34.0976V40.0976H155.274V34.0976H149.274ZM149.274 32.9268H155.274V26.9268H149.274V32.9268ZM148.104 32.9268H142.104V38.9268H148.104V32.9268ZM148.104 31.7561H154.104V25.7561H148.104V31.7561ZM146.933 31.7561H140.933V37.7561H146.933V31.7561ZM146.933 30.5854H152.933V24.5854H146.933V30.5854ZM145.762 30.5854H139.762V36.5854H145.762V30.5854ZM145.762 29.4146H151.762V23.4146H145.762V29.4146ZM144.591 29.4146H138.591V35.4146H144.591V29.4146ZM144.591 28.2439H150.591V22.2439H144.591V28.2439ZM143.421 28.2439H137.421V34.2439H143.421V28.2439ZM143.421 13.0244V7.02439H137.421V13.0244H143.421ZM149.274 13.0244H155.274V7.02439H149.274V13.0244ZM149.274 27.0732H143.274V33.0732H149.274V27.0732ZM150.445 27.0732H156.445V21.0732H150.445V27.0732ZM150.445 28.2439H144.445V34.2439H150.445V28.2439ZM151.616 28.2439H157.616V22.2439H151.616V28.2439ZM151.616 29.4146H145.616V35.4146H151.616V29.4146ZM153.957 29.4146V35.4146H159.957V29.4146H153.957ZM153.957 28.2439V22.2439H147.957V28.2439H153.957ZM155.128 28.2439V34.2439H161.128V28.2439H155.128ZM155.128 27.0732V21.0732H149.128V27.0732H155.128ZM156.299 27.0732V33.0732H162.299V27.0732H156.299ZM156.299 13.0244V7.02439H150.299V13.0244H156.299ZM162.152 13.0244H168.152V7.02439H162.152V13.0244ZM162.152 28.2439V34.2439H168.152V28.2439H162.152ZM160.982 28.2439V22.2439H154.982V28.2439H160.982ZM160.982 29.4146V35.4146H166.982V29.4146H160.982ZM159.811 29.4146V23.4146H153.811V29.4146H159.811ZM159.811 30.5854V36.5854H165.811V30.5854H159.811ZM158.64 30.5854V24.5854H152.64V30.5854H158.64ZM158.64 31.7561V37.7561H164.64V31.7561H158.64ZM157.47 31.7561V25.7561H151.47V31.7561H157.47ZM157.47 32.9268V38.9268H163.47V32.9268H157.47ZM156.299 32.9268V26.9268H150.299V32.9268H156.299ZM156.299 34.0976V40.0976H162.299V34.0976H156.299ZM155.128 34.0976V28.0976H149.128V34.0976H155.128ZM155.128 35.2683V41.2683H161.128V35.2683H155.128ZM153.957 35.2683V29.2683H147.957V35.2683H153.957ZM153.957 36.439V42.439H159.957V36.439H153.957ZM152.787 36.439V30.439H146.787V36.439H152.787ZM152.787 37.6098V43.6098H158.787V37.6098H152.787ZM151.616 37.6098V31.6098H145.616V37.6098H151.616ZM151.616 38.7805V44.7805H157.616V38.7805H151.616ZM150.445 38.7805V32.7805H144.445V38.7805H150.445ZM150.445 39.9512V45.9512H156.445V39.9512H150.445ZM149.274 39.9512V33.9512H143.274V39.9512H149.274ZM149.274 41.122V47.122H155.274V41.122H149.274ZM148.104 41.122V35.122H142.104V41.122H148.104ZM148.104 42.2927V48.2927H154.104V42.2927H148.104ZM144.591 42.2927H138.591V48.2927H144.591V42.2927ZM144.591 37.6098V31.6098H138.591V37.6098H144.591ZM145.762 37.6098H151.762V36.439H145.762H139.762V37.6098H145.762ZM145.762 36.439V42.439H146.933V36.439V30.439H145.762V36.439ZM146.933 36.439H152.933V35.2683H146.933H140.933V36.439H146.933ZM146.933 35.2683V41.2683H148.104V35.2683V29.2683H146.933V35.2683ZM148.104 35.2683H154.104V34.0976H148.104H142.104V35.2683H148.104ZM148.104 34.0976V40.0976H149.274V34.0976V28.0976H148.104V34.0976ZM149.274 34.0976H155.274V32.9268H149.274H143.274V34.0976H149.274ZM149.274 32.9268V26.9268H148.104V32.9268V38.9268H149.274V32.9268ZM148.104 32.9268H154.104V31.7561H148.104H142.104V32.9268H148.104ZM148.104 31.7561V25.7561H146.933V31.7561V37.7561H148.104V31.7561ZM146.933 31.7561H152.933V30.5854H146.933H140.933V31.7561H146.933ZM146.933 30.5854V24.5854H145.762V30.5854V36.5854H146.933V30.5854ZM145.762 30.5854H151.762V29.4146H145.762H139.762V30.5854H145.762ZM145.762 29.4146V23.4146H144.591V29.4146V35.4146H145.762V29.4146ZM144.591 29.4146H150.591V28.2439H144.591H138.591V29.4146H144.591ZM144.591 28.2439V22.2439H143.421V28.2439V34.2439H144.591V28.2439ZM143.421 28.2439H149.421V13.0244H143.421H137.421V28.2439H143.421ZM143.421 13.0244V19.0244H149.274V13.0244V7.02439H143.421V13.0244ZM149.274 13.0244H143.274V27.0732H149.274H155.274V13.0244H149.274ZM149.274 27.0732V33.0732H150.445V27.0732V21.0732H149.274V27.0732ZM150.445 27.0732H144.445V28.2439H150.445H156.445V27.0732H150.445ZM150.445 28.2439V34.2439H151.616V28.2439V22.2439H150.445V28.2439ZM151.616 28.2439H145.616V29.4146H151.616H157.616V28.2439H151.616ZM151.616 29.4146V35.4146H153.957V29.4146V23.4146H151.616V29.4146ZM153.957 29.4146H159.957V28.2439H153.957H147.957V29.4146H153.957ZM153.957 28.2439V34.2439H155.128V28.2439V22.2439H153.957V28.2439ZM155.128 28.2439H161.128V27.0732H155.128H149.128V28.2439H155.128ZM155.128 27.0732V33.0732H156.299V27.0732V21.0732H155.128V27.0732ZM156.299 27.0732H162.299V13.0244H156.299H150.299V27.0732H156.299ZM156.299 13.0244V19.0244H162.152V13.0244V7.02439H156.299V13.0244ZM162.152 13.0244H156.152V28.2439H162.152H168.152V13.0244H162.152ZM162.152 28.2439V22.2439H160.982V28.2439V34.2439H162.152V28.2439ZM160.982 28.2439H154.982V29.4146H160.982H166.982V28.2439H160.982ZM160.982 29.4146V23.4146H159.811V29.4146V35.4146H160.982V29.4146ZM159.811 29.4146H153.811V30.5854H159.811H165.811V29.4146H159.811ZM159.811 30.5854V24.5854H158.64V30.5854V36.5854H159.811V30.5854ZM158.64 30.5854H152.64V31.7561H158.64H164.64V30.5854H158.64ZM158.64 31.7561V25.7561H157.47V31.7561V37.7561H158.64V31.7561ZM157.47 31.7561H151.47V32.9268H157.47H163.47V31.7561H157.47ZM157.47 32.9268V26.9268H156.299V32.9268V38.9268H157.47V32.9268ZM156.299 32.9268H150.299V34.0976H156.299H162.299V32.9268H156.299ZM156.299 34.0976V28.0976H155.128V34.0976V40.0976H156.299V34.0976ZM155.128 34.0976H149.128V35.2683H155.128H161.128V34.0976H155.128ZM155.128 35.2683V29.2683H153.957V35.2683V41.2683H155.128V35.2683ZM153.957 35.2683H147.957V36.439H153.957H159.957V35.2683H153.957ZM153.957 36.439V30.439H152.787V36.439V42.439H153.957V36.439ZM152.787 36.439H146.787V37.6098H152.787H158.787V36.439H152.787ZM152.787 37.6098V31.6098H151.616V37.6098V43.6098H152.787V37.6098ZM151.616 37.6098H145.616V38.7805H151.616H157.616V37.6098H151.616ZM151.616 38.7805V32.7805H150.445V38.7805V44.7805H151.616V38.7805ZM150.445 38.7805H144.445V39.9512H150.445H156.445V38.7805H150.445ZM150.445 39.9512V33.9512H149.274V39.9512V45.9512H150.445V39.9512ZM149.274 39.9512H143.274V41.122H149.274H155.274V39.9512H149.274ZM149.274 41.122V35.122H148.104V41.122V47.122H149.274V41.122ZM148.104 41.122H142.104V42.2927H148.104H154.104V41.122H148.104ZM148.104 42.2927V36.2927H144.591V42.2927V48.2927H148.104V42.2927ZM144.591 42.2927H150.591V37.6098H144.591H138.591V42.2927H144.591ZM144.591 37.6098V43.6098H145.762V37.6098V31.6098H144.591V37.6098ZM171.541 28.2439H177.541V22.2439H171.541V28.2439ZM171.541 29.4146H165.541V35.4146H171.541V29.4146ZM172.712 29.4146H178.712V23.4146H172.712V29.4146ZM172.712 30.5854H166.712V36.5854H172.712V30.5854ZM177.395 30.5854V36.5854H183.395V30.5854H177.395ZM177.395 29.4146V23.4146H171.395V29.4146H177.395ZM178.566 29.4146V35.4146H184.566V29.4146H178.566ZM178.566 27.0732H184.566V21.0732H178.566V27.0732ZM177.395 27.0732H171.395V33.0732H177.395V27.0732ZM177.395 25.9024H183.395V19.9024H177.395V25.9024ZM170.37 25.9024H164.37V31.9024H170.37V25.9024ZM170.37 24.7317H176.37V18.7317H170.37V24.7317ZM168.029 24.7317H162.029V30.7317H168.029V24.7317ZM168.029 23.561H174.029V17.561H168.029V23.561ZM166.858 23.561H160.858V29.561H166.858V23.561ZM166.858 21.2195H172.858V15.2195H166.858V21.2195ZM165.688 21.2195H159.688V27.2195H165.688V21.2195ZM165.688 17.7073V11.7073H159.688V17.7073H165.688ZM166.858 17.7073V23.7073H172.858V17.7073H166.858ZM166.858 15.3659V9.36586H160.858V15.3659H166.858ZM168.029 15.3659V21.3659H174.029V15.3659H168.029ZM168.029 14.1951V8.19513H162.029V14.1951H168.029ZM170.37 14.1951V20.1951H176.37V14.1951H170.37ZM170.37 13.0244V7.02439H164.37V13.0244H170.37ZM179.736 13.0244H185.736V7.02439H179.736V13.0244ZM179.736 14.1951H173.736V20.1951H179.736V14.1951ZM182.078 14.1951H188.078V8.19513H182.078V14.1951ZM182.078 15.3659H176.078V21.3659H182.078V15.3659ZM183.248 15.3659H189.248V9.36586H183.248V15.3659ZM183.248 18.8781V24.8781H189.248V18.8781H183.248ZM177.395 18.8781H171.395V24.8781H177.395V18.8781ZM177.395 17.7073H183.395V11.7073H177.395V17.7073ZM172.712 17.7073V11.7073H166.712V17.7073H172.712ZM172.712 18.8781V24.8781H178.712V18.8781H172.712ZM171.541 18.8781V12.8781H165.541V18.8781H171.541ZM171.541 20.0488H165.541V26.0488H171.541V20.0488ZM172.712 20.0488H178.712V14.0488H172.712V20.0488ZM172.712 21.2195H166.712V27.2195H172.712V21.2195ZM179.736 21.2195H185.736V15.2195H179.736V21.2195ZM179.736 22.3902H173.736V28.3902H179.736V22.3902ZM182.078 22.3902H188.078V16.3902H182.078V22.3902ZM182.078 23.561H176.078V29.561H182.078V23.561ZM183.248 23.561H189.248V17.561H183.248V23.561ZM183.248 25.9024H177.248V31.9024H183.248V25.9024ZM184.419 25.9024H190.419V19.9024H184.419V25.9024ZM184.419 30.5854V36.5854H190.419V30.5854H184.419ZM183.248 30.5854V24.5854H177.248V30.5854H183.248ZM183.248 32.9268V38.9268H189.248V32.9268H183.248ZM182.078 32.9268V26.9268H176.078V32.9268H182.078ZM182.078 34.0976V40.0976H188.078V34.0976H182.078ZM179.736 34.0976V28.0976H173.736V34.0976H179.736ZM179.736 35.2683V41.2683H185.736V35.2683H179.736ZM170.37 35.2683H164.37V41.2683H170.37V35.2683ZM170.37 34.0976H176.37V28.0976H170.37V34.0976ZM168.029 34.0976H162.029V40.0976H168.029V34.0976ZM168.029 32.9268H174.029V26.9268H168.029V32.9268ZM166.858 32.9268H160.858V38.9268H166.858V32.9268ZM166.858 30.5854H172.858V24.5854H166.858V30.5854ZM165.688 30.5854H159.688V36.5854H165.688V30.5854ZM165.688 28.2439V22.2439H159.688V28.2439H165.688ZM171.541 28.2439H165.541V29.4146H171.541H177.541V28.2439H171.541ZM171.541 29.4146V35.4146H172.712V29.4146V23.4146H171.541V29.4146ZM172.712 29.4146H166.712V30.5854H172.712H178.712V29.4146H172.712ZM172.712 30.5854V36.5854H177.395V30.5854V24.5854H172.712V30.5854ZM177.395 30.5854H183.395V29.4146H177.395H171.395V30.5854H177.395ZM177.395 29.4146V35.4146H178.566V29.4146V23.4146H177.395V29.4146ZM178.566 29.4146H184.566V27.0732H178.566H172.566V29.4146H178.566ZM178.566 27.0732V21.0732H177.395V27.0732V33.0732H178.566V27.0732ZM177.395 27.0732H183.395V25.9024H177.395H171.395V27.0732H177.395ZM177.395 25.9024V19.9024H170.37V25.9024V31.9024H177.395V25.9024ZM170.37 25.9024H176.37V24.7317H170.37H164.37V25.9024H170.37ZM170.37 24.7317V18.7317H168.029V24.7317V30.7317H170.37V24.7317ZM168.029 24.7317H174.029V23.561H168.029H162.029V24.7317H168.029ZM168.029 23.561V17.561H166.858V23.561V29.561H168.029V23.561ZM166.858 23.561H172.858V21.2195H166.858H160.858V23.561H166.858ZM166.858 21.2195V15.2195H165.688V21.2195V27.2195H166.858V21.2195ZM165.688 21.2195H171.688V17.7073H165.688H159.688V21.2195H165.688ZM165.688 17.7073V23.7073H166.858V17.7073V11.7073H165.688V17.7073ZM166.858 17.7073H172.858V15.3659H166.858H160.858V17.7073H166.858ZM166.858 15.3659V21.3659H168.029V15.3659V9.36586H166.858V15.3659ZM168.029 15.3659H174.029V14.1951H168.029H162.029V15.3659H168.029ZM168.029 14.1951V20.1951H170.37V14.1951V8.19513H168.029V14.1951ZM170.37 14.1951H176.37V13.0244H170.37H164.37V14.1951H170.37ZM170.37 13.0244V19.0244H179.736V13.0244V7.02439H170.37V13.0244ZM179.736 13.0244H173.736V14.1951H179.736H185.736V13.0244H179.736ZM179.736 14.1951V20.1951H182.078V14.1951V8.19513H179.736V14.1951ZM182.078 14.1951H176.078V15.3659H182.078H188.078V14.1951H182.078ZM182.078 15.3659V21.3659H183.248V15.3659V9.36586H182.078V15.3659ZM183.248 15.3659H177.248V18.8781H183.248H189.248V15.3659H183.248ZM183.248 18.8781V12.8781H177.395V18.8781V24.8781H183.248V18.8781ZM177.395 18.8781H183.395V17.7073H177.395H171.395V18.8781H177.395ZM177.395 17.7073V11.7073H172.712V17.7073V23.7073H177.395V17.7073ZM172.712 17.7073H166.712V18.8781H172.712H178.712V17.7073H172.712ZM172.712 18.8781V12.8781H171.541V18.8781V24.8781H172.712V18.8781ZM171.541 18.8781H165.541V20.0488H171.541H177.541V18.8781H171.541ZM171.541 20.0488V26.0488H172.712V20.0488V14.0488H171.541V20.0488ZM172.712 20.0488H166.712V21.2195H172.712H178.712V20.0488H172.712ZM172.712 21.2195V27.2195H179.736V21.2195V15.2195H172.712V21.2195ZM179.736 21.2195H173.736V22.3902H179.736H185.736V21.2195H179.736ZM179.736 22.3902V28.3902H182.078V22.3902V16.3902H179.736V22.3902ZM182.078 22.3902H176.078V23.561H182.078H188.078V22.3902H182.078ZM182.078 23.561V29.561H183.248V23.561V17.561H182.078V23.561ZM183.248 23.561H177.248V25.9024H183.248H189.248V23.561H183.248ZM183.248 25.9024V31.9024H184.419V25.9024V19.9024H183.248V25.9024ZM184.419 25.9024H178.419V30.5854H184.419H190.419V25.9024H184.419ZM184.419 30.5854V24.5854H183.248V30.5854V36.5854H184.419V30.5854ZM183.248 30.5854H177.248V32.9268H183.248H189.248V30.5854H183.248ZM183.248 32.9268V26.9268H182.078V32.9268V38.9268H183.248V32.9268ZM182.078 32.9268H176.078V34.0976H182.078H188.078V32.9268H182.078ZM182.078 34.0976V28.0976H179.736V34.0976V40.0976H182.078V34.0976ZM179.736 34.0976H173.736V35.2683H179.736H185.736V34.0976H179.736ZM179.736 35.2683V29.2683H170.37V35.2683V41.2683H179.736V35.2683ZM170.37 35.2683H176.37V34.0976H170.37H164.37V35.2683H170.37ZM170.37 34.0976V28.0976H168.029V34.0976V40.0976H170.37V34.0976ZM168.029 34.0976H174.029V32.9268H168.029H162.029V34.0976H168.029ZM168.029 32.9268V26.9268H166.858V32.9268V38.9268H168.029V32.9268ZM166.858 32.9268H172.858V30.5854H166.858H160.858V32.9268H166.858ZM166.858 30.5854V24.5854H165.688V30.5854V36.5854H166.858V30.5854ZM165.688 30.5854H171.688V28.2439H165.688H159.688V30.5854H165.688ZM165.688 28.2439V34.2439H171.541V28.2439V22.2439H165.688V28.2439ZM194.976 27.0732H200.976V21.0732H194.976V27.0732ZM194.976 28.2439H188.976V34.2439H194.976V28.2439ZM196.147 28.2439H202.147V22.2439H196.147V28.2439ZM196.147 29.4146H190.147V35.4146H196.147V29.4146ZM197.318 29.4146V35.4146H203.318V29.4146H197.318ZM197.318 28.2439V22.2439H191.318V28.2439H197.318ZM198.489 28.2439V34.2439H204.489V28.2439H198.489ZM198.489 27.0732V21.0732H192.489V27.0732H198.489ZM199.659 27.0732V33.0732H205.659V27.0732H199.659ZM199.659 13.0244V7.02439H193.659V13.0244H199.659ZM205.513 13.0244H211.513V7.02439H205.513V13.0244ZM205.513 27.0732H199.513V33.0732H205.513V27.0732ZM206.684 27.0732H212.684V21.0732H206.684V27.0732ZM206.684 28.2439H200.684V34.2439H206.684V28.2439ZM207.854 28.2439H213.854V22.2439H207.854V28.2439ZM207.854 29.4146H201.854V35.4146H207.854V29.4146ZM209.025 29.4146V35.4146H215.025V29.4146H209.025ZM209.025 28.2439V22.2439H203.025V28.2439H209.025ZM210.196 28.2439V34.2439H216.196V28.2439H210.196ZM210.196 27.0732V21.0732H204.196V27.0732H210.196ZM211.367 27.0732V33.0732H217.367V27.0732H211.367ZM211.367 13.0244V7.02439H205.367V13.0244H211.367ZM217.22 13.0244H223.22V7.02439H217.22V13.0244ZM217.22 28.2439V34.2439H223.22V28.2439H217.22ZM216.05 28.2439V22.2439H210.05V28.2439H216.05ZM216.05 29.4146V35.4146H222.05V29.4146H216.05ZM214.879 29.4146V23.4146H208.879V29.4146H214.879ZM214.879 30.5854V36.5854H220.879V30.5854H214.879ZM213.708 30.5854V24.5854H207.708V30.5854H213.708ZM213.708 31.7561V37.7561H219.708V31.7561H213.708ZM212.537 31.7561V25.7561H206.537V31.7561H212.537ZM212.537 32.9268V38.9268H218.537V32.9268H212.537ZM211.367 32.9268V26.9268H205.367V32.9268H211.367ZM211.367 34.0976V40.0976H217.367V34.0976H211.367ZM210.196 34.0976V28.0976H204.196V34.0976H210.196ZM210.196 35.2683V41.2683H216.196V35.2683H210.196ZM206.684 35.2683H200.684V41.2683H206.684V35.2683ZM206.684 34.0976H212.684V28.0976H206.684V34.0976ZM205.513 34.0976H199.513V40.0976H205.513V34.0976ZM205.513 32.9268H211.513V26.9268H205.513V32.9268ZM204.342 32.9268H198.342V38.9268H204.342V32.9268ZM204.342 31.7561H210.342V25.7561H204.342V31.7561ZM203.171 31.7561H197.171V37.7561H203.171V31.7561ZM203.171 30.5854H209.171V24.5854H203.171V30.5854ZM202.001 30.5854V24.5854H196.001V30.5854H202.001ZM202.001 31.7561V37.7561H208.001V31.7561H202.001ZM200.83 31.7561V25.7561H194.83V31.7561H200.83ZM200.83 32.9268V38.9268H206.83V32.9268H200.83ZM199.659 32.9268V26.9268H193.659V32.9268H199.659ZM199.659 34.0976V40.0976H205.659V34.0976H199.659ZM198.489 34.0976V28.0976H192.489V34.0976H198.489ZM198.489 35.2683V41.2683H204.489V35.2683H198.489ZM194.976 35.2683H188.976V41.2683H194.976V35.2683ZM194.976 34.0976H200.976V28.0976H194.976V34.0976ZM193.806 34.0976H187.806V40.0976H193.806V34.0976ZM193.806 32.9268H199.806V26.9268H193.806V32.9268ZM192.635 32.9268H186.635V38.9268H192.635V32.9268ZM192.635 31.7561H198.635V25.7561H192.635V31.7561ZM191.464 31.7561H185.464V37.7561H191.464V31.7561ZM191.464 30.5854H197.464V24.5854H191.464V30.5854ZM190.293 30.5854H184.293V36.5854H190.293V30.5854ZM190.293 29.4146H196.293V23.4146H190.293V29.4146ZM189.123 29.4146H183.123V35.4146H189.123V29.4146ZM189.123 28.2439H195.123V22.2439H189.123V28.2439ZM187.952 28.2439H181.952V34.2439H187.952V28.2439ZM187.952 13.0244V7.02439H181.952V13.0244H187.952ZM193.806 13.0244H199.806V7.02439H193.806V13.0244ZM193.806 27.0732H187.806V33.0732H193.806V27.0732ZM194.976 27.0732H188.976V28.2439H194.976H200.976V27.0732H194.976ZM194.976 28.2439V34.2439H196.147V28.2439V22.2439H194.976V28.2439ZM196.147 28.2439H190.147V29.4146H196.147H202.147V28.2439H196.147ZM196.147 29.4146V35.4146H197.318V29.4146V23.4146H196.147V29.4146ZM197.318 29.4146H203.318V28.2439H197.318H191.318V29.4146H197.318ZM197.318 28.2439V34.2439H198.489V28.2439V22.2439H197.318V28.2439ZM198.489 28.2439H204.489V27.0732H198.489H192.489V28.2439H198.489ZM198.489 27.0732V33.0732H199.659V27.0732V21.0732H198.489V27.0732ZM199.659 27.0732H205.659V13.0244H199.659H193.659V27.0732H199.659ZM199.659 13.0244V19.0244H205.513V13.0244V7.02439H199.659V13.0244ZM205.513 13.0244H199.513V27.0732H205.513H211.513V13.0244H205.513ZM205.513 27.0732V33.0732H206.684V27.0732V21.0732H205.513V27.0732ZM206.684 27.0732H200.684V28.2439H206.684H212.684V27.0732H206.684ZM206.684 28.2439V34.2439H207.854V28.2439V22.2439H206.684V28.2439ZM207.854 28.2439H201.854V29.4146H207.854H213.854V28.2439H207.854ZM207.854 29.4146V35.4146H209.025V29.4146V23.4146H207.854V29.4146ZM209.025 29.4146H215.025V28.2439H209.025H203.025V29.4146H209.025ZM209.025 28.2439V34.2439H210.196V28.2439V22.2439H209.025V28.2439ZM210.196 28.2439H216.196V27.0732H210.196H204.196V28.2439H210.196ZM210.196 27.0732V33.0732H211.367V27.0732V21.0732H210.196V27.0732ZM211.367 27.0732H217.367V13.0244H211.367H205.367V27.0732H211.367ZM211.367 13.0244V19.0244H217.22V13.0244V7.02439H211.367V13.0244ZM217.22 13.0244H211.22V28.2439H217.22H223.22V13.0244H217.22ZM217.22 28.2439V22.2439H216.05V28.2439V34.2439H217.22V28.2439ZM216.05 28.2439H210.05V29.4146H216.05H222.05V28.2439H216.05ZM216.05 29.4146V23.4146H214.879V29.4146V35.4146H216.05V29.4146ZM214.879 29.4146H208.879V30.5854H214.879H220.879V29.4146H214.879ZM214.879 30.5854V24.5854H213.708V30.5854V36.5854H214.879V30.5854ZM213.708 30.5854H207.708V31.7561H213.708H219.708V30.5854H213.708ZM213.708 31.7561V25.7561H212.537V31.7561V37.7561H213.708V31.7561ZM212.537 31.7561H206.537V32.9268H212.537H218.537V31.7561H212.537ZM212.537 32.9268V26.9268H211.367V32.9268V38.9268H212.537V32.9268ZM211.367 32.9268H205.367V34.0976H211.367H217.367V32.9268H211.367ZM211.367 34.0976V28.0976H210.196V34.0976V40.0976H211.367V34.0976ZM210.196 34.0976H204.196V35.2683H210.196H216.196V34.0976H210.196ZM210.196 35.2683V29.2683H206.684V35.2683V41.2683H210.196V35.2683ZM206.684 35.2683H212.684V34.0976H206.684H200.684V35.2683H206.684ZM206.684 34.0976V28.0976H205.513V34.0976V40.0976H206.684V34.0976ZM205.513 34.0976H211.513V32.9268H205.513H199.513V34.0976H205.513ZM205.513 32.9268V26.9268H204.342V32.9268V38.9268H205.513V32.9268ZM204.342 32.9268H210.342V31.7561H204.342H198.342V32.9268H204.342ZM204.342 31.7561V25.7561H203.171V31.7561V37.7561H204.342V31.7561ZM203.171 31.7561H209.171V30.5854H203.171H197.171V31.7561H203.171ZM203.171 30.5854V24.5854H202.001V30.5854V36.5854H203.171V30.5854ZM202.001 30.5854H196.001V31.7561H202.001H208.001V30.5854H202.001ZM202.001 31.7561V25.7561H200.83V31.7561V37.7561H202.001V31.7561ZM200.83 31.7561H194.83V32.9268H200.83H206.83V31.7561H200.83ZM200.83 32.9268V26.9268H199.659V32.9268V38.9268H200.83V32.9268ZM199.659 32.9268H193.659V34.0976H199.659H205.659V32.9268H199.659ZM199.659 34.0976V28.0976H198.489V34.0976V40.0976H199.659V34.0976ZM198.489 34.0976H192.489V35.2683H198.489H204.489V34.0976H198.489ZM198.489 35.2683V29.2683H194.976V35.2683V41.2683H198.489V35.2683ZM194.976 35.2683H200.976V34.0976H194.976H188.976V35.2683H194.976ZM194.976 34.0976V28.0976H193.806V34.0976V40.0976H194.976V34.0976ZM193.806 34.0976H199.806V32.9268H193.806H187.806V34.0976H193.806ZM193.806 32.9268V26.9268H192.635V32.9268V38.9268H193.806V32.9268ZM192.635 32.9268H198.635V31.7561H192.635H186.635V32.9268H192.635ZM192.635 31.7561V25.7561H191.464V31.7561V37.7561H192.635V31.7561ZM191.464 31.7561H197.464V30.5854H191.464H185.464V31.7561H191.464ZM191.464 30.5854V24.5854H190.293V30.5854V36.5854H191.464V30.5854ZM190.293 30.5854H196.293V29.4146H190.293H184.293V30.5854H190.293ZM190.293 29.4146V23.4146H189.123V29.4146V35.4146H190.293V29.4146ZM189.123 29.4146H195.123V28.2439H189.123H183.123V29.4146H189.123ZM189.123 28.2439V22.2439H187.952V28.2439V34.2439H189.123V28.2439ZM187.952 28.2439H193.952V13.0244H187.952H181.952V28.2439H187.952ZM187.952 13.0244V19.0244H193.806V13.0244V7.02439H187.952V13.0244ZM193.806 13.0244H187.806V27.0732H193.806H199.806V13.0244H193.806ZM193.806 27.0732V33.0732H194.976V27.0732V21.0732H193.806V27.0732ZM226.572 28.2439H232.572V22.2439H226.572V28.2439ZM226.572 29.4146H220.572V35.4146H226.572V29.4146ZM227.743 29.4146H233.743V23.4146H227.743V29.4146ZM227.743 30.5854H221.743V36.5854H227.743V30.5854ZM232.426 30.5854V36.5854H238.426V30.5854H232.426ZM232.426 29.4146V23.4146H226.426V29.4146H232.426ZM233.597 29.4146V35.4146H239.597V29.4146H233.597ZM233.597 27.0732H239.597V21.0732H233.597V27.0732ZM232.426 27.0732H226.426V33.0732H232.426V27.0732ZM232.426 25.9024H238.426V19.9024H232.426V25.9024ZM225.402 25.9024H219.402V31.9024H225.402V25.9024ZM225.402 24.7317H231.402V18.7317H225.402V24.7317ZM223.06 24.7317H217.06V30.7317H223.06V24.7317ZM223.06 23.561H229.06V17.561H223.06V23.561ZM221.889 23.561H215.889V29.561H221.889V23.561ZM221.889 21.2195H227.889V15.2195H221.889V21.2195ZM220.719 21.2195H214.719V27.2195H220.719V21.2195ZM220.719 17.7073V11.7073H214.719V17.7073H220.719ZM221.889 17.7073V23.7073H227.889V17.7073H221.889ZM221.889 15.3659V9.36586H215.889V15.3659H221.889ZM223.06 15.3659V21.3659H229.06V15.3659H223.06ZM223.06 14.1951V8.19513H217.06V14.1951H223.06ZM225.402 14.1951V20.1951H231.402V14.1951H225.402ZM225.402 13.0244V7.02439H219.402V13.0244H225.402ZM234.768 13.0244H240.768V7.02439H234.768V13.0244ZM234.768 14.1951H228.768V20.1951H234.768V14.1951ZM237.109 14.1951H243.109V8.19513H237.109V14.1951ZM237.109 15.3659H231.109V21.3659H237.109V15.3659ZM238.28 15.3659H244.28V9.36586H238.28V15.3659ZM238.28 18.8781V24.8781H244.28V18.8781H238.28ZM232.426 18.8781H226.426V24.8781H232.426V18.8781ZM232.426 17.7073H238.426V11.7073H232.426V17.7073ZM227.743 17.7073V11.7073H221.743V17.7073H227.743ZM227.743 18.8781V24.8781H233.743V18.8781H227.743ZM226.572 18.8781V12.8781H220.572V18.8781H226.572ZM226.572 20.0488H220.572V26.0488H226.572V20.0488ZM227.743 20.0488H233.743V14.0488H227.743V20.0488ZM227.743 21.2195H221.743V27.2195H227.743V21.2195ZM234.768 21.2195H240.768V15.2195H234.768V21.2195ZM234.768 22.3902H228.768V28.3902H234.768V22.3902ZM237.109 22.3902H243.109V16.3902H237.109V22.3902ZM237.109 23.561H231.109V29.561H237.109V23.561ZM238.28 23.561H244.28V17.561H238.28V23.561ZM238.28 25.9024H232.28V31.9024H238.28V25.9024ZM239.45 25.9024H245.45V19.9024H239.45V25.9024ZM239.45 30.5854V36.5854H245.45V30.5854H239.45ZM238.28 30.5854V24.5854H232.28V30.5854H238.28ZM238.28 32.9268V38.9268H244.28V32.9268H238.28ZM237.109 32.9268V26.9268H231.109V32.9268H237.109ZM237.109 34.0976V40.0976H243.109V34.0976H237.109ZM234.768 34.0976V28.0976H228.768V34.0976H234.768ZM234.768 35.2683V41.2683H240.768V35.2683H234.768ZM225.402 35.2683H219.402V41.2683H225.402V35.2683ZM225.402 34.0976H231.402V28.0976H225.402V34.0976ZM223.06 34.0976H217.06V40.0976H223.06V34.0976ZM223.06 32.9268H229.06V26.9268H223.06V32.9268ZM221.889 32.9268H215.889V38.9268H221.889V32.9268ZM221.889 30.5854H227.889V24.5854H221.889V30.5854ZM220.719 30.5854H214.719V36.5854H220.719V30.5854ZM220.719 28.2439V22.2439H214.719V28.2439H220.719ZM226.572 28.2439H220.572V29.4146H226.572H232.572V28.2439H226.572ZM226.572 29.4146V35.4146H227.743V29.4146V23.4146H226.572V29.4146ZM227.743 29.4146H221.743V30.5854H227.743H233.743V29.4146H227.743ZM227.743 30.5854V36.5854H232.426V30.5854V24.5854H227.743V30.5854ZM232.426 30.5854H238.426V29.4146H232.426H226.426V30.5854H232.426ZM232.426 29.4146V35.4146H233.597V29.4146V23.4146H232.426V29.4146ZM233.597 29.4146H239.597V27.0732H233.597H227.597V29.4146H233.597ZM233.597 27.0732V21.0732H232.426V27.0732V33.0732H233.597V27.0732ZM232.426 27.0732H238.426V25.9024H232.426H226.426V27.0732H232.426ZM232.426 25.9024V19.9024H225.402V25.9024V31.9024H232.426V25.9024ZM225.402 25.9024H231.402V24.7317H225.402H219.402V25.9024H225.402ZM225.402 24.7317V18.7317H223.06V24.7317V30.7317H225.402V24.7317ZM223.06 24.7317H229.06V23.561H223.06H217.06V24.7317H223.06ZM223.06 23.561V17.561H221.889V23.561V29.561H223.06V23.561ZM221.889 23.561H227.889V21.2195H221.889H215.889V23.561H221.889ZM221.889 21.2195V15.2195H220.719V21.2195V27.2195H221.889V21.2195ZM220.719 21.2195H226.719V17.7073H220.719H214.719V21.2195H220.719ZM220.719 17.7073V23.7073H221.889V17.7073V11.7073H220.719V17.7073ZM221.889 17.7073H227.889V15.3659H221.889H215.889V17.7073H221.889ZM221.889 15.3659V21.3659H223.06V15.3659V9.36586H221.889V15.3659ZM223.06 15.3659H229.06V14.1951H223.06H217.06V15.3659H223.06ZM223.06 14.1951V20.1951H225.402V14.1951V8.19513H223.06V14.1951ZM225.402 14.1951H231.402V13.0244H225.402H219.402V14.1951H225.402ZM225.402 13.0244V19.0244H234.768V13.0244V7.02439H225.402V13.0244ZM234.768 13.0244H228.768V14.1951H234.768H240.768V13.0244H234.768ZM234.768 14.1951V20.1951H237.109V14.1951V8.19513H234.768V14.1951ZM237.109 14.1951H231.109V15.3659H237.109H243.109V14.1951H237.109ZM237.109 15.3659V21.3659H238.28V15.3659V9.36586H237.109V15.3659ZM238.28 15.3659H232.28V18.8781H238.28H244.28V15.3659H238.28ZM238.28 18.8781V12.8781H232.426V18.8781V24.8781H238.28V18.8781ZM232.426 18.8781H238.426V17.7073H232.426H226.426V18.8781H232.426ZM232.426 17.7073V11.7073H227.743V17.7073V23.7073H232.426V17.7073ZM227.743 17.7073H221.743V18.8781H227.743H233.743V17.7073H227.743ZM227.743 18.8781V12.8781H226.572V18.8781V24.8781H227.743V18.8781ZM226.572 18.8781H220.572V20.0488H226.572H232.572V18.8781H226.572ZM226.572 20.0488V26.0488H227.743V20.0488V14.0488H226.572V20.0488ZM227.743 20.0488H221.743V21.2195H227.743H233.743V20.0488H227.743ZM227.743 21.2195V27.2195H234.768V21.2195V15.2195H227.743V21.2195ZM234.768 21.2195H228.768V22.3902H234.768H240.768V21.2195H234.768ZM234.768 22.3902V28.3902H237.109V22.3902V16.3902H234.768V22.3902ZM237.109 22.3902H231.109V23.561H237.109H243.109V22.3902H237.109ZM237.109 23.561V29.561H238.28V23.561V17.561H237.109V23.561ZM238.28 23.561H232.28V25.9024H238.28H244.28V23.561H238.28ZM238.28 25.9024V31.9024H239.45V25.9024V19.9024H238.28V25.9024ZM239.45 25.9024H233.45V30.5854H239.45H245.45V25.9024H239.45ZM239.45 30.5854V24.5854H238.28V30.5854V36.5854H239.45V30.5854ZM238.28 30.5854H232.28V32.9268H238.28H244.28V30.5854H238.28ZM238.28 32.9268V26.9268H237.109V32.9268V38.9268H238.28V32.9268ZM237.109 32.9268H231.109V34.0976H237.109H243.109V32.9268H237.109ZM237.109 34.0976V28.0976H234.768V34.0976V40.0976H237.109V34.0976ZM234.768 34.0976H228.768V35.2683H234.768H240.768V34.0976H234.768ZM234.768 35.2683V29.2683H225.402V35.2683V41.2683H234.768V35.2683ZM225.402 35.2683H231.402V34.0976H225.402H219.402V35.2683H225.402ZM225.402 34.0976V28.0976H223.06V34.0976V40.0976H225.402V34.0976ZM223.06 34.0976H229.06V32.9268H223.06H217.06V34.0976H223.06ZM223.06 32.9268V26.9268H221.889V32.9268V38.9268H223.06V32.9268ZM221.889 32.9268H227.889V30.5854H221.889H215.889V32.9268H221.889ZM221.889 30.5854V24.5854H220.719V30.5854V36.5854H221.889V30.5854ZM220.719 30.5854H226.719V28.2439H220.719H214.719V30.5854H220.719ZM220.719 28.2439V34.2439H226.572V28.2439V22.2439H220.719V28.2439Z" fill="#FFF7FB" mask="url(#path-1-outside-1_1_3)"/>
</g>
<defs>
<filter id="filter0_d_1_3" x="0" y="0" width="245.45" height="53.2927" filterUnits="userSpaceOnUse" color-interpolation-filters="sRGB">
<feFlood flood-opacity="0" result="BackgroundImageFix"/>
<feColorMatrix in="SourceAlpha" type="matrix" values="0 0 0 0 0 0 0 0 0 0 0 0 0 0 0 0 0 0 127 0" result="hardAlpha"/>
<feOffset dx="-5" dy="5"/>
<feComposite in2="hardAlpha" operator="out"/>
<feColorMatrix type="matrix" values="0 0 0 0 0.937255 0 0 0 0 0.470588 0 0 0 0 0.65098 0 0 0 1 0"/>
<feBlend mode="normal" in2="BackgroundImageFix" result="effect1_dropShadow_1_3"/>
<feBlend mode="normal" in="SourceGraphic" in2="effect1_dropShadow_1_3" result="shape"/>
</filter>
</defs>
</svg>
